<svg xmlns="http://www.w3.org/2000/svg" viewBox="0 0 50 50">
  <path d="M7 4C4.243 4 2 6.243 2 9L2 33C2 35.757 4.243 38 7 38L11.140625 38C11.479625 40.895 10.625328 42.858578 8.4863281 44.142578C8.1013281 44.373578 7.9171094 44.834578 8.0371094 45.267578C8.1561094 45.700578 8.55 46 9 46C11.56 46 17.707594 45.205 20.683594 38L28.179688 38C28.295687 37.311 28.470266 36.644 28.697266 36L20 36C19.581 36 19.205547 36.261297 19.060547 36.654297C17.419547 41.130297 14.418937 42.90975 11.960938 43.59375C13.141937 41.84475 13.485375 39.578313 12.984375 36.820312C12.897375 36.345312 12.483 36 12 36L7 36C5.346 36 4 34.654 4 33L4 9C4 7.346 5.346 6 7 6L43 6C44.654 6 46 7.346 46 9L46 29.617188C46.718 30.033188 47.386 30.522266 48 31.072266L48 9C48 6.243 45.757 4 43 4L7 4 z M 40 30C34.5 30 30 34.5 30 40C30 45.5 34.5 50 40 50C45.5 50 50 45.5 50 40C50 34.5 45.5 30 40 30 z M 40 32C44.4 32 48 35.6 48 40C48 44.4 44.4 48 40 48C35.6 48 32 44.4 32 40C32 35.6 35.6 32 40 32 z M 44.300781 35.400391L38.900391 41.699219L35.599609 39.199219L34.400391 40.800781L39.099609 44.400391L45.800781 36.699219L44.300781 35.400391 z" fill="#FFFFFF" />
</svg>