<svg xmlns="http://www.w3.org/2000/svg" width="24" height="24" viewBox="0 0 24 24">
  <path d="M3 1C1.9069372 1 1 1.9069372 1 3L1 5L1 6L3 6L3 5L3 3L5 3L6 3L6 1L5 1L3 1 z M 18 1L18 3L19 3L21 3L21 5L21 6L23 6L23 5L23 3C23 1.9069372 22.093063 1 21 1L19 1L18 1 z M 12 4C4 4 1 12 1 12C1 12 4 20 12 20C20 20 23 12 23 12C23 12 20 4 12 4 z M 12 6C17.276 6 19.944594 10.267094 20.808594 11.996094C19.943594 13.713094 17.255 18 12 18C6.724 18 4.0554062 13.732906 3.1914062 12.003906C4.0574062 10.286906 6.745 6 12 6 z M 12 8C9.791 8 8 9.791 8 12C8 14.209 9.791 16 12 16C14.209 16 16 14.209 16 12C16 9.791 14.209 8 12 8 z M 12 10C13.105 10 14 10.895 14 12C14 13.105 13.105 14 12 14C10.895 14 10 13.105 10 12C10 10.895 10.895 10 12 10 z M 1 18L1 19L1 21C1 22.093063 1.9069372 23 3 23L5 23L6 23L6 21L5 21L3 21L3 19L3 18L1 18 z M 21 18L21 19L21 21L19 21L18 21L18 23L19 23L21 23C22.093063 23 23 22.093063 23 21L23 19L23 18L21 18 z" fill="#B6B6B6" />
</svg>