<svg xmlns="http://www.w3.org/2000/svg" viewBox="0 0 50 50">
  <path d="M49.03125 0.96875L47.96875 1C47.96875 1 40.617188 1.097656 33.53125 4.625C31.253906 5.761719 28.964844 7.320313 26.90625 9.375C24.371094 11.910156 20.792969 16.070313 17.53125 20L9 20C8.96875 20 8.9375 20 8.90625 20C8.636719 20.027344 8.386719 20.160156 8.21875 20.375L3.21875 26.375C3.007813 26.640625 2.941406 26.996094 3.050781 27.316406C3.15625 27.636719 3.421875 27.882813 3.75 27.96875L9.84375 29.5C9.796875 29.558594 9.5 29.9375 9.5 29.9375L9.375 30.0625L9.3125 30.25C9.3125 30.25 9.226563 30.601563 9.25 30.9375C9.257813 31.0625 9.28125 31.226563 9.3125 31.375L7.15625 35C7.15625 35 7.058594 35.195313 7.03125 35.3125C7.003906 35.429688 6.996094 35.574219 7 35.71875C7.007813 36.007813 7.078125 36.332031 7.25 36.71875C7.59375 37.492188 8.328125 38.515625 9.90625 40.09375C11.484375 41.667969 12.503906 42.40625 13.28125 42.75C13.667969 42.921875 13.992188 42.992188 14.28125 43C14.425781 43.003906 14.570313 42.996094 14.6875 42.96875C14.804688 42.941406 15 42.84375 15 42.84375L18.65625 40.6875C18.792969 40.714844 18.949219 40.742188 19.0625 40.75C19.398438 40.773438 19.75 40.6875 19.75 40.6875L19.9375 40.625L20.09375 40.5C20.09375 40.5 20.449219 40.226563 20.5 40.1875L22.03125 46.25C22.117188 46.578125 22.363281 46.84375 22.683594 46.949219C23.003906 47.058594 23.359375 46.992188 23.625 46.78125L29.625 41.78125C29.863281 41.589844 30 41.304688 30 41L30 32.4375C33.957031 29.148438 38.144531 25.574219 40.625 23.09375C42.671875 21.042969 44.207031 18.75 45.34375 16.46875C48.855469 9.394531 49 2.03125 49 2.03125 Z M 46.875 3.125C46.792969 4.628906 46.398438 9.875 43.5625 15.59375C42.507813 17.714844 41.09375 19.8125 39.21875 21.6875C36.78125 24.125 32.492188 27.78125 28.5 31.09375C28.417969 31.144531 28.34375 31.207031 28.28125 31.28125C23.605469 35.15625 19.386719 38.511719 19.125 38.71875C19.007813 38.707031 18.824219 38.695313 18.5 38.5625C17.753906 38.257813 16.445313 37.476563 14.5 35.53125C12.554688 33.585938 11.742188 32.246094 11.4375 31.5C11.304688 31.175781 11.292969 30.992188 11.28125 30.875C11.488281 30.613281 14.796875 26.441406 18.65625 21.78125C18.761719 21.695313 18.84375 21.589844 18.90625 21.46875C22.183594 17.515625 25.816406 13.277344 28.3125 10.78125C30.195313 8.898438 32.289063 7.496094 34.40625 6.4375C40.132813 3.589844 45.375 3.203125 46.875 3.125 Z M 34 11C31.25 11 29 13.25 29 16C29 18.75 31.25 21 34 21C36.75 21 39 18.75 39 16C39 13.25 36.75 11 34 11 Z M 34 13C35.667969 13 37 14.332031 37 16C37 17.667969 35.667969 19 34 19C32.332031 19 31 17.667969 31 16C31 14.332031 32.332031 13 34 13 Z M 9.46875 22L15.875 22C13.957031 24.339844 12.378906 26.328125 11.21875 27.78125L5.78125 26.40625 Z M 10.3125 33.59375C10.882813 34.507813 11.71875 35.59375 13.0625 36.9375C14.402344 38.277344 15.492188 39.117188 16.40625 39.6875L14.25 40.96875C14.21875 40.960938 14.222656 40.964844 14.09375 40.90625C13.683594 40.726563 12.789063 40.160156 11.3125 38.6875C9.839844 37.210938 9.273438 36.316406 9.09375 35.90625C9.035156 35.777344 9.039063 35.78125 9.03125 35.75 Z M 28 34.125L28 40.53125L23.59375 44.21875L22.21875 38.8125C23.667969 37.652344 25.636719 36.070313 28 34.125 Z M 6.40625 38.21875C4.773438 39.472656 3.296875 39.632813 1.96875 40.9375C1.304688 41.589844 0.777344 42.515625 0.46875 43.78125C0.160156 45.046875 0.03125 46.679688 0.03125 48.96875L0.03125 49.96875L1.03125 49.96875C5.625 49.96875 7.871094 49.242188 9.21875 47.875C10.566406 46.507813 10.789063 44.984375 11.8125 43.59375L10.1875 42.40625C8.890625 44.171875 8.601563 45.636719 7.78125 46.46875C7.058594 47.203125 5.449219 47.742188 2.125 47.875C2.175781 46.421875 2.246094 45.027344 2.4375 44.25C2.6875 43.238281 2.992188 42.75 3.375 42.375C4.136719 41.625 5.628906 41.289063 7.59375 39.78125 Z M 14.09375 41.0625L14 41.125L14 41.09375C14 41.09375 14.054688 41.078125 14.09375 41.0625Z" fill="#B7B7B7" />
</svg>