<svg xmlns="http://www.w3.org/2000/svg" viewBox="0 0 50 50">
  <path d="M7 1L7 47L36.109375 47L34.371094 45L9 45L9 3L28 3L28 15.996094L41 15.996094L41 28L43 28L43 15.164062 A 1.0001 1.0001 0 0 0 43 14.837891L43 14.564453L29.392578 1L7 1 z M 30 4.3964844L39.566406 13.996094L30 13.996094L30 4.3964844 z M 22.78125 18C22.028935 18 21.253835 18.427081 20.910156 19.056641C20.566477 19.6862 20.546541 20.36366 20.630859 21.066406C20.763775 22.174191 21.267209 23.43153 21.919922 24.712891C21.595405 25.809154 21.438694 26.76284 20.951172 27.929688C20.330121 29.416125 19.569007 30.597863 18.835938 31.835938C17.88317 32.281028 16.681507 32.679453 15.978516 33.140625C15.189066 33.658515 14.565947 34.126043 14.199219 34.863281C14.015855 35.2319 13.922225 35.753316 14.103516 36.226562C14.28407 36.697896 14.658028 37.007129 15.044922 37.208984C15.863507 37.639163 16.809958 37.371839 17.494141 36.910156C18.178837 36.448127 18.789777 35.773298 19.402344 34.949219C19.712541 34.531913 19.958459 33.85494 20.261719 33.367188C21.240151 32.932223 21.935939 32.486031 23.048828 32.101562C24.553385 31.581785 25.893402 31.365042 27.298828 31.058594C28.476157 31.85346 29.728468 32.466797 31.09375 32.466797C31.866941 32.466797 32.46371 32.434337 33.046875 32.117188C33.63004 31.800041 33.982422 31.038382 33.982422 30.457031C33.982422 29.983365 33.773696 29.48155 33.445312 29.15625C33.116929 28.83095 32.724031 28.660322 32.324219 28.552734C31.524593 28.33756 30.618766 28.349782 29.576172 28.458984C29.024169 28.516804 28.288781 28.80721 27.675781 28.923828C27.595001 28.858288 27.513978 28.830998 27.433594 28.761719C26.185994 27.686458 25.018321 26.201546 24.152344 24.726562C24.098894 24.635523 24.107701 24.577353 24.056641 24.486328C24.266529 23.69528 24.68182 22.779424 24.775391 22.085938C24.904314 21.130439 24.932438 20.293831 24.701172 19.527344C24.585535 19.1441 24.389799 18.759495 24.048828 18.460938C23.707857 18.162379 23.229454 18 22.78125 18 z M 22.697266 19.992188C22.710178 19.992955 22.725942 19.999966 22.748047 20.003906C22.752047 20.010206 22.757449 20.007106 22.787109 20.105469C22.842359 20.288574 22.809436 20.808928 22.791016 21.269531C22.767116 21.150492 22.629849 20.933661 22.617188 20.828125C22.561267 20.36209 22.635553 20.067855 22.664062 20.015625C22.674287 19.996895 22.684353 19.99142 22.697266 19.992188 z M 23.302734 27.009766C23.918277 27.897453 24.604402 28.722196 25.369141 29.486328C24.343936 29.759437 23.427764 29.854662 22.396484 30.210938C22.179842 30.285777 22.051966 30.387503 21.837891 30.464844C22.14389 29.82916 22.521784 29.359582 22.796875 28.701172C23.046004 28.104902 23.087712 27.602931 23.302734 27.009766 z M 38 30L38 39L33 39L41.693359 49.003906L50 39L45 39L45 30L38 30 z M 40 32L43 32L43 41L46 41L41.693359 46L37 41L40 41L40 32 z" fill="#FFFFFF" />
</svg>