<svg xmlns="http://www.w3.org/2000/svg" viewBox="0 0 50 50">
  <path d="M24.875 0C24.691406 0.0234375 24.519531 0.101563 24.375 0.21875C24.375 0.21875 17 5.875 17 13.90625C17 16.335938 17.46875 21.148438 17.96875 25.90625C18.085938 27.023438 18.132813 27.488281 18.25 28.5625L14.21875 33.34375C14.070313 33.53125 13.992188 33.761719 14 34L14 38C14 38.328125 14.160156 38.632813 14.429688 38.820313C14.695313 39.003906 15.039063 39.050781 15.34375 38.9375L19.28125 37.53125C19.539063 38.332031 20.246094 39 21.1875 39L28.8125 39C29.753906 39 30.460938 38.332031 30.71875 37.53125L34.65625 38.9375C34.960938 39.050781 35.304688 39.003906 35.570313 38.820313C35.839844 38.632813 36 38.328125 36 38L36 34C36.007813 33.761719 35.929688 33.53125 35.78125 33.34375L31.78125 28.625C32.386719 23.09375 33 16.761719 33 13.90625C33 5.875 25.625 0.21875 25.625 0.21875C25.414063 0.046875 25.144531 -0.03125 24.875 0 Z M 25 2.4375C26.019531 3.3125 31 7.769531 31 13.90625C31 18.144531 29.3125 33.101563 28.8125 36.90625C28.8125 36.917969 28.8125 36.957031 28.8125 36.96875C28.8125 36.972656 28.800781 37 28.8125 37L21.1875 37C21.1875 36.984375 21.1875 36.921875 21.1875 36.90625C20.980469 34.957031 20.433594 30.390625 19.9375 25.6875C19.4375 20.945313 19 16.074219 19 13.90625C19 7.769531 23.980469 3.3125 25 2.4375 Z M 25 10C22.800781 10 21 11.800781 21 14C21 16.199219 22.800781 18 25 18C27.199219 18 29 16.199219 29 14C29 11.800781 27.199219 10 25 10 Z M 25 12C26.117188 12 27 12.882813 27 14C27 15.117188 26.117188 16 25 16C23.882813 16 23 15.117188 23 14C23 12.882813 23.882813 12 25 12 Z M 18.5625 31.34375C18.730469 32.820313 18.921875 34.492188 19.03125 35.46875L16 36.5625L16 34.40625 Z M 31.46875 31.40625L34 34.40625L34 36.5625L31 35.46875C31.140625 34.324219 31.277344 33.097656 31.46875 31.40625 Z M 21.53125 39.96875C21.488281 39.976563 21.445313 39.988281 21.40625 40C21.082031 40.066406 20.816406 40.289063 20.6875 40.59375C20.386719 41.292969 20 42.136719 20 43.1875C20 44.972656 21.191406 46.480469 22.25 47.6875C23.308594 48.894531 24.375 49.78125 24.375 49.78125C24.742188 50.074219 25.257813 50.074219 25.625 49.78125C25.625 49.78125 26.691406 48.894531 27.75 47.6875C28.808594 46.480469 30 44.972656 30 43.1875C30 42.222656 29.761719 41.25 29.21875 40.4375C28.90625 39.980469 28.285156 39.859375 27.828125 40.171875C27.371094 40.484375 27.25 41.105469 27.5625 41.5625C27.820313 41.949219 28 42.554688 28 43.1875C28 43.902344 27.191406 45.304688 26.25 46.375C25.625 47.085938 25.351563 47.28125 25 47.59375C24.648438 47.28125 24.375 47.085938 23.75 46.375C22.808594 45.304688 22 43.902344 22 43.1875C22 42.636719 22.230469 42.105469 22.53125 41.40625C22.691406 41.078125 22.664063 40.691406 22.457031 40.390625C22.246094 40.09375 21.894531 39.929688 21.53125 39.96875Z" fill="#B7B7B7" />
</svg>