<svg xmlns="http://www.w3.org/2000/svg" viewBox="0 0 50 50">
  <path d="M15.9375 1.9882812 A 1.0001 1.0001 0 0 0 15.142578 3.5136719C15.142578 3.5136719 18.52381 9 26 9 A 1.0001 1.0001 0 1 0 26 7C19.47619 7 16.857422 2.4863281 16.857422 2.4863281 A 1.0001 1.0001 0 0 0 16.037109 1.9882812 A 1.0001 1.0001 0 0 0 15.9375 1.9882812 z M 25 2 A 1.0001 1.0001 0 1 0 25 4C28.5 4 31.292969 6.7070312 31.292969 6.7070312L31.802734 7.2167969L32.447266 6.8945312C32.447266 6.8945313 34.333333 6 36 6C38.555556 6 40.292969 7.7070312 40.292969 7.7070312 A 1.0001 1.0001 0 1 0 41.707031 6.2929688C41.707031 6.2929688 39.444444 4 36 4C34.176743 4 32.794008 4.5681483 32.142578 4.8632812C31.443683 4.2139795 28.91335 2 25 2 z M 38.064453 10L37.064453 25L37 25L32 25L32 13.580078L18 18.582031L18 13.580078L2 19.294922L2 48L48 48L48 25L45.935547 25L44.935547 10L38.064453 10 z M 39.935547 12L43.064453 12L44.064453 27L46 27L46 46L4 46L4 20.705078L16 16.417969L16 27L18 27L18 20.705078L30 16.417969L30 27L31 27L32 27L37 27L38.935547 27L42 27L42 25L39.068359 25L39.935547 12 z M 7 24L7 28L9 28L9 24L7 24 z M 11 24L11 28L13 28L13 24L11 24 z M 21 24L21 28L23 28L23 24L21 24 z M 25 24L25 28L27 28L27 24L25 24 z M 7 31L7 35L9 35L9 31L7 31 z M 11 31L11 35L13 35L13 31L11 31 z M 16 31L16 35L18 35L18 31L16 31 z M 21 31L21 35L23 35L23 31L21 31 z M 25 31L25 35L27 35L27 31L25 31 z M 33 31L33 33L37 33L37 31L33 31 z M 39 31L39 33L43 33L43 31L39 31 z M 7 38L7 42L9 42L9 38L7 38 z M 11 38L11 42L13 42L13 38L11 38 z M 16 38L16 42L18 42L18 38L16 38 z M 21 38L21 42L23 42L23 38L21 38 z M 25 38L25 42L27 42L27 38L25 38 z" fill="#FFFFFF" />
</svg>