<svg xmlns="http://www.w3.org/2000/svg" viewBox="0 0 50 50">
  <path d="M6 2L6 47L37 47L35 45L8 45L8 4L41 4L41 26L43 26L43 2 Z M 15.40625 8C13.226563 8.039063 13.046875 9.730469 13.46875 11.359375C13.46875 11.359375 13.242188 11.589844 13.253906 11.910156C13.277344 12.523438 13.683594 12.71875 13.683594 12.71875C13.761719 13.289063 14.261719 13.796875 14.441406 13.890625C14.441406 14.253906 14.480469 14.53125 14.441406 14.929688C14.011719 16.089844 11.132813 15.761719 11 18L19.890625 18C19.753906 15.761719 16.875 16.089844 16.441406 14.929688C16.40625 14.53125 16.441406 14.253906 16.441406 13.890625C16.691406 13.773438 17.101563 13.296875 17.183594 12.71875C17.183594 12.71875 17.609375 12.445313 17.609375 11.996094C17.609375 11.679688 17.503906 11.445313 17.421875 11.359375C17.648438 10.664063 18.042969 8.550781 16.527344 8.550781C16.363281 8.265625 15.953125 8 15.40625 8 Z M 26 10C25.640625 9.996094 25.304688 10.183594 25.121094 10.496094C24.941406 10.808594 24.941406 11.191406 25.121094 11.503906C25.304688 11.816406 25.640625 12.003906 26 12L34 12C34.359375 12.003906 34.695313 11.816406 34.878906 11.503906C35.058594 11.191406 35.058594 10.808594 34.878906 10.496094C34.695313 10.183594 34.359375 9.996094 34 10 Z M 26 15C25.640625 14.996094 25.304688 15.183594 25.121094 15.496094C24.941406 15.808594 24.941406 16.191406 25.121094 16.503906C25.304688 16.816406 25.640625 17.003906 26 17L34 17C34.359375 17.003906 34.695313 16.816406 34.878906 16.503906C35.058594 16.191406 35.058594 15.808594 34.878906 15.496094C34.695313 15.183594 34.359375 14.996094 34 15 Z M 12 25C11.640625 24.996094 11.304688 25.183594 11.121094 25.496094C10.941406 25.808594 10.941406 26.191406 11.121094 26.503906C11.304688 26.816406 11.640625 27.003906 12 27L26 27C26.359375 27.003906 26.695313 26.816406 26.878906 26.503906C27.058594 26.191406 27.058594 25.808594 26.878906 25.496094C26.695313 25.183594 26.359375 24.996094 26 25 Z M 36 28L36 37L30.808594 37L32.246094 38.65625L39.5 47.003906L48.191406 37L43 37L43 28 Z M 38 30L41 30L41 39L43.808594 39L39.5 43.957031L35.191406 39L38 39 Z M 12 31C11.640625 30.996094 11.304688 31.183594 11.121094 31.496094C10.941406 31.808594 10.941406 32.191406 11.121094 32.503906C11.304688 32.816406 11.640625 33.003906 12 33L23 33C23.359375 33.003906 23.695313 32.816406 23.878906 32.503906C24.058594 32.191406 24.058594 31.808594 23.878906 31.496094C23.695313 31.183594 23.359375 30.996094 23 31 Z M 12 37C11.640625 36.996094 11.304688 37.183594 11.121094 37.496094C10.941406 37.808594 10.941406 38.191406 11.121094 38.503906C11.304688 38.816406 11.640625 39.003906 12 39L26 39C26.359375 39.003906 26.695313 38.816406 26.878906 38.503906C27.058594 38.191406 27.058594 37.808594 26.878906 37.496094C26.695313 37.183594 26.359375 36.996094 26 37Z" fill="#5B5B5B" />
</svg>