<svg xmlns="http://www.w3.org/2000/svg" viewBox="0 0 50 50">
  <path d="M25.042969 2C24.816406 2.011719 24.601563 2.101563 24.433594 2.253906L21.5625 4.820313L17.800781 3.984375C17.300781 3.875 16.796875 4.160156 16.636719 4.648438L15.433594 8.304688L11.757813 9.460938C11.269531 9.617188 10.976563 10.113281 11.078125 10.617188L11.863281 14.386719L9.265625 17.222656C8.917969 17.601563 8.914063 18.183594 9.253906 18.566406L11.816406 21.4375L10.984375 25.199219C10.875 25.699219 11.160156 26.203125 11.644531 26.363281L15.300781 27.566406L16.066406 30L16 30L16 47C16 47.347656 16.179688 47.667969 16.472656 47.851563C16.769531 48.03125 17.136719 48.050781 17.449219 47.894531L25 44.117188L32.550781 47.894531C32.863281 48.050781 33.230469 48.03125 33.527344 47.851563C33.820313 47.667969 34 47.347656 34 47L34 29.421875L34.566406 27.699219L38.242188 26.539063C38.730469 26.382813 39.023438 25.886719 38.921875 25.382813L38.136719 21.613281L40.734375 18.777344C41.082031 18.398438 41.085938 17.816406 40.746094 17.433594L38.183594 14.5625L39.015625 10.800781C39.125 10.300781 38.839844 9.796875 38.355469 9.636719L34.699219 8.429688L33.539063 4.757813C33.382813 4.269531 32.886719 3.976563 32.382813 4.078125L28.613281 4.863281L25.777344 2.265625C25.601563 2.105469 25.375 2.011719 25.140625 2C25.109375 2 25.074219 2 25.042969 2 Z M 25.089844 4.347656L27.640625 6.683594C27.875 6.902344 28.203125 6.992188 28.519531 6.925781L31.90625 6.222656L32.941406 9.519531C33.039063 9.828125 33.277344 10.070313 33.582031 10.171875L36.867188 11.25L36.121094 14.628906C36.050781 14.941406 36.136719 15.273438 36.347656 15.511719L38.652344 18.089844L36.316406 20.640625C36.097656 20.875 36.007813 21.203125 36.074219 21.519531L36.777344 24.90625L33.480469 25.941406C33.171875 26.039063 32.929688 26.277344 32.828125 26.582031L32.03125 29L32 29L32 29.105469L31.75 29.867188L28.371094 29.121094C28.058594 29.050781 27.726563 29.136719 27.488281 29.347656L24.910156 31.652344L22.359375 29.316406C22.125 29.097656 21.796875 29.007813 21.480469 29.074219L18.09375 29.777344L17.058594 26.480469C16.960938 26.171875 16.722656 25.929688 16.417969 25.828125L13.132813 24.75L13.878906 21.371094C13.949219 21.058594 13.863281 20.726563 13.652344 20.488281L11.347656 17.910156L13.683594 15.359375C13.902344 15.125 13.992188 14.796875 13.925781 14.480469L13.222656 11.09375L16.519531 10.058594C16.828125 9.960938 17.070313 9.722656 17.171875 9.414063L18.25 6.132813L21.628906 6.882813C21.941406 6.949219 22.273438 6.863281 22.511719 6.648438 Z M 25 8C19.488281 8 15 12.488281 15 18C15 23.511719 19.488281 28 25 28C30.511719 28 35 23.511719 35 18C35 12.488281 30.511719 8 25 8 Z M 25 10C29.429688 10 33 13.570313 33 18C33 22.429688 29.429688 26 25 26C20.570313 26 17 22.429688 17 18C17 13.570313 20.570313 10 25 10 Z M 21.386719 31.136719L24.222656 33.734375C24.601563 34.082031 25.183594 34.085938 25.566406 33.746094L28.4375 31.183594L32 31.972656L32 45.382813L25.449219 42.105469C25.164063 41.964844 24.835938 41.964844 24.550781 42.105469L18 45.382813L18 31.839844Z" fill="#B7B7B7" />
</svg>