<svg xmlns="http://www.w3.org/2000/svg" viewBox="0 0 50 50">
  <path d="M25 2C12.318 2 2 12.318 2 25C2 37.682 12.318 48 25 48C37.682 48 48 37.682 48 25C48 20.403 46.639641 16.119484 44.306641 12.521484L43.414062 13.414062L42.84375 13.984375C44.83175 17.191375 46 20.957 46 25C46 36.58 36.58 46 25 46C13.42 46 4 36.58 4 25C4 13.42 13.42 4 25 4C29.913324 4 34.420349 5.7174429 38 8.5566406L38 10.585938L35.564453 13.021484C32.744125 10.527393 29.05189 9 25 9C16.178 9 9 16.178 9 25C9 33.822 16.178 41 25 41C33.822 41 41 33.822 41 25C41 21.671 39.975516 18.576672 38.228516 16.013672L36.779297 17.462891C38.177297 19.641891 39 22.224 39 25C39 32.72 32.72 39 25 39C17.28 39 11 32.72 11 25C11 17.28 17.28 11 25 11C28.501297 11 31.695102 12.301736 34.150391 14.435547L30.603516 17.982422C29.064857 16.748299 27.121541 16 25 16C20.038 16 16 20.038 16 25C16 29.962 20.038 34 25 34C29.962 34 34 29.962 34 25C34 23.613 33.675281 22.304859 33.113281 21.130859L31.587891 22.654297C31.849891 23.388297 32 24.177 32 25C32 28.86 28.86 32 25 32C21.14 32 18 28.86 18 25C18 21.14 21.14 18 25 18C26.569963 18 28.015135 18.526035 29.183594 19.402344L25.515625 23.070312 A 2 2 0 0 0 25 23 A 2 2 0 0 0 23 25 A 2 2 0 0 0 25 27 A 2 2 0 0 0 27 25 A 2 2 0 0 0 26.931641 24.482422L39.414062 12L42 12L47 7L43 7L43 3L39.126953 6.8730469C35.224868 3.8243441 30.324342 2 25 2 z" fill="#B6B6B6" />
</svg>