<svg xmlns="http://www.w3.org/2000/svg" viewBox="0 0 50 50">
  <path d="M39.09375 0C37.660156 0 36.40625 1.113281 36.34375 2.59375L36.3125 2.59375L36.3125 2.6875L34.4375 22.09375C34.300781 22.03125 34.152344 21.996094 34 22L33 22L33 16C33.003906 15.652344 32.824219 15.332031 32.535156 15.148438C32.242188 14.960938 31.875 14.941406 31.5625 15.09375L17 21.875L17 17C16.996094 16.652344 16.8125 16.328125 16.511719 16.148438C16.210938 15.96875 15.839844 15.960938 15.53125 16.125L0.53125 24.125C0.207031 24.296875 0.00390625 24.632813 0 25L0 49C0 49.550781 0.449219 50 1 50L49 50C49.277344 50 49.539063 49.886719 49.730469 49.683594C49.917969 49.484375 50.015625 49.214844 50 48.9375L47.1875 2.75C47.1875 2.730469 47.1875 2.707031 47.1875 2.6875C47.039063 1.214844 45.898438 0 44.40625 0 Z M 39.09375 2L44.40625 2C44.703125 2 45.109375 2.378906 45.1875 2.875L47.9375 48L2 48L2 25.59375L15 18.65625L15 23C15 23.550781 15.449219 24 16 24L17 24C17.152344 24.003906 17.300781 23.96875 17.4375 23.90625L31 17.5625L31 23C31 23.550781 31.449219 24 32 24L33 24L33 37C32.972656 37.550781 33.402344 38.019531 33.953125 38.046875C34.503906 38.074219 34.972656 37.644531 35 37.09375L35 37L38.28125 2.78125C38.292969 2.75 38.304688 2.71875 38.3125 2.6875C38.3125 2.222656 38.558594 2 39.09375 2 Z M 7 27L7 32L10 32L10 27 Z M 16 27L16 32L19 32L19 27 Z M 25 27L25 32L28 32L28 27 Z M 7 36L7 41L10 41L10 36 Z M 16 36L16 41L19 41L19 36 Z M 25 36L25 41L28 41L28 36Z" fill="#144196" />
</svg>