<svg xmlns="http://www.w3.org/2000/svg" viewBox="0 0 50 50">
  <path d="M24 2C11.3125 2 3 11.226563 3 21.40625C3 26.210938 4.867188 30.003906 6.625 33.4375C8.382813 36.871094 10 39.929688 10 43.40625L10 48L12 48L12 43.40625C12 39.3125 10.117188 35.9375 8.375 32.53125C6.632813 29.125 5 25.695313 5 21.40625C5 12.304688 12.265625 4 24 4C30.207031 4 34.246094 6.019531 36.9375 9.03125C39.628906 12.042969 40.972656 16.140625 41.46875 20.3125L41.5 20.5L41.59375 20.6875L45.78125 28.21875C46.15625 28.898438 45.871094 29.699219 45.15625 30L42.625 31.0625L42 31.34375L42 36.875C42 40.261719 39.261719 43 35.875 43L32 43L32 48L34 48L34 45L35.875 45C40.34375 45 44 41.34375 44 36.875L44 32.65625L45.9375 31.84375C47.71875 31.09375 48.46875 28.941406 47.53125 27.25L43.40625 19.84375C42.855469 15.472656 41.421875 11.058594 38.40625 7.6875C35.339844 4.257813 30.652344 2 24 2 Z M 24 13C18.488281 13 14 17.488281 14 23C14 26.714844 16.046875 29.933594 19.0625 31.65625C19.570313 32.589844 19.964844 33.515625 20 34.8125C19.992188 34.875 19.992188 34.9375 20 35C20 35.03125 20 35.0625 20 35.09375L20 37C20 38.371094 20.953125 39.523438 22.21875 39.875C22.542969 40.539063 23.210938 41 24 41C24.789063 41 25.457031 40.539063 25.78125 39.875C27.046875 39.523438 28 38.371094 28 37L28 35.15625C28.003906 35.105469 28.003906 35.050781 28 35C28 34.96875 28 34.9375 28 34.90625C28.019531 33.511719 28.421875 32.574219 28.96875 31.59375C31.953125 29.863281 34 26.691406 34 23C34 17.488281 29.511719 13 24 13 Z M 24 15C28.429688 15 32 18.570313 32 23C32 26.089844 30.269531 28.757813 27.71875 30.09375C27.550781 30.179688 27.410156 30.308594 27.3125 30.46875C26.785156 31.402344 26.339844 32.597656 26.15625 34L21.84375 34C21.664063 32.613281 21.238281 31.433594 20.71875 30.5C20.625 30.328125 20.484375 30.1875 20.3125 30.09375C17.75 28.757813 16 26.09375 16 23C16 18.570313 19.570313 15 24 15 Z M 21.5 22C20.671875 22 20 22.671875 20 23.5C20 24.328125 20.671875 25 21.5 25C22.019531 25 22.480469 24.742188 22.75 24.34375C22.902344 24.519531 23 24.742188 23 25L23 32L25 32L25 25C25 24.742188 25.097656 24.519531 25.25 24.34375C25.519531 24.742188 25.980469 25 26.5 25C27.328125 25 28 24.328125 28 23.5C28 22.671875 27.328125 22 26.5 22L26 22C25.234375 22 24.53125 22.300781 24 22.78125C23.46875 22.300781 22.765625 22 22 22 Z M 22 36L26 36L26 37C26 37.566406 25.566406 38 25 38L23 38C22.433594 38 22 37.566406 22 37Z" fill="#B6B6B6" />
</svg>