<svg xmlns="http://www.w3.org/2000/svg" viewBox="0 0 50 50">
  <path d="M24.402344 9C17.800781 9 11.601563 9.5 8.300781 10.199219C6.101563 10.699219 4.199219 12.199219 3.800781 14.5C3.402344 16.898438 3 20.5 3 25C3 29.5 3.398438 33 3.898438 35.5C4.300781 37.699219 6.199219 39.300781 8.398438 39.800781C11.902344 40.5 17.898438 41 24.5 41C31.101563 41 37.097656 40.5 40.597656 39.800781C42.800781 39.300781 44.699219 37.800781 45.097656 35.5C45.5 33 46 29.402344 46.097656 24.902344C46.097656 20.402344 45.597656 16.800781 45.097656 14.300781C44.699219 12.101563 42.800781 10.5 40.597656 10C37.097656 9.5 31 9 24.402344 9 Z M 24.402344 11C31.601563 11 37.398438 11.597656 40.199219 12.097656C41.699219 12.5 42.898438 13.5 43.097656 14.800781C43.699219 18 44.097656 21.402344 44.097656 24.902344C44 29.199219 43.5 32.699219 43.097656 35.199219C42.800781 37.097656 40.800781 37.699219 40.199219 37.902344C36.597656 38.601563 30.597656 39.097656 24.597656 39.097656C18.597656 39.097656 12.5 38.699219 9 37.902344C7.5 37.5 6.300781 36.5 6.101563 35.199219C5.300781 32.398438 5 28.699219 5 25C5 20.398438 5.402344 17 5.800781 14.902344C6.101563 13 8.199219 12.398438 8.699219 12.199219C12 11.5 18.101563 11 24.402344 11 Z M 19 17L19 33L33 25 Z M 21 20.402344L29 25L21 29.597656Z" fill="#FFFFFF" />
</svg>