<svg xmlns="http://www.w3.org/2000/svg" viewBox="0 0 100 100">
  <path d="M49.742188 13.001953C49.275744 13.006408 48.805658 13.023332 48.333984 13.052734C35.641217 13.844666 25.21923 23.975142 24.103516 36.644531C23.273985 46.062143 27.486771 54.580307 34.347656 59.759766C36.038985 61.036909 37 63.088752 37 65.242188L37 66C37 68.186326 38.241875 70.025324 40 71.074219L40 78C40 80.108521 41.332365 81.901127 43.189453 82.632812C43.416456 83.852893 44.117286 84.936222 45.203125 85.660156C46.484212 86.514264 48.162855 87 50 87C51.837145 87 53.515788 86.514264 54.796875 85.660156C55.882714 84.936222 56.583544 83.852893 56.810547 82.632812C58.667635 81.901127 60 80.108521 60 78L60 71.074219C61.758125 70.025324 63 68.186326 63 66L63 65.244141C63 63.025451 64.087383 60.969127 65.876953 59.587891C72.032725 54.834844 76 47.374506 76 39C76 24.566433 64.201927 12.863858 49.742188 13.001953 z M 49.761719 15.001953C63.144997 14.870879 74 25.653692 74 39C74 46.743494 70.338525 53.616906 64.654297 58.005859C62.411867 59.736623 61 62.37083 61 65.244141L61 66C61 68.220375 59.220375 70 57 70L43 70C40.779625 70 39 68.220375 39 66L39 65.242188C39 62.493622 37.773405 59.838966 35.552734 58.162109C29.21762 53.379568 25.327234 45.544702 26.095703 36.820312C27.123989 25.143702 36.757752 15.778896 48.458984 15.048828C48.895685 15.021606 49.33 15.006181 49.761719 15.001953 z M 49.976562 24C49.130599 24.000248 48.290745 24.068064 47.460938 24.203125L47.458984 24.203125L47.455078 24.203125C46.993635 24.283825 46.655029 24.706076 46.673828 25.171875L46.673828 25.173828L46.673828 25.175781C46.709608 25.941382 46.579998 26.527818 46.316406 26.980469C46.052819 27.43312 45.649087 27.775637 45.039062 28.029297L45.037109 28.029297C44.417027 28.292066 43.886443 28.340512 43.376953 28.208984C42.867463 28.077457 42.357616 27.751998 41.835938 27.181641L41.833984 27.179688L41.832031 27.177734C41.512609 26.837704 40.968173 26.76909 40.582031 27.066406C39.204366 28.066279 37.994929 29.284503 37.005859 30.662109C36.73294 31.041164 36.778805 31.575295 37.126953 31.902344L37.128906 31.904297C38.221826 32.917515 38.453855 33.811696 37.992188 35.011719C37.741844 35.635941 37.403869 36.052716 36.953125 36.328125C36.503672 36.602745 35.919294 36.743118 35.154297 36.722656C34.673488 36.701096 34.254539 37.062185 34.191406 37.535156C33.922919 39.195233 33.921045 40.893235 34.201172 42.582031L34.203125 42.587891L34.203125 42.591797C34.284515 43.036308 34.675822 43.369141 35.132812 43.369141L35.138672 43.369141L35.144531 43.369141C36.637129 43.333431 37.425024 43.82127 37.931641 44.996094C38.447995 46.218664 38.228746 47.133517 37.146484 48.173828C36.805114 48.495377 36.745465 49.013082 37.027344 49.402344C38.017553 50.76924 39.219471 51.95265 40.572266 52.9375C40.685721 53.040317 40.762023 53.060361 40.794922 53.068359C41.156621 53.221434 41.520735 53.141749 41.798828 52.90625C41.854378 52.86191 41.901854 52.81811 41.925781 52.792969L41.927734 52.791016C42.785936 51.9001 43.901137 51.64008 44.910156 52.046875L44.955078 52.064453C46.031008 52.527625 46.632598 53.46014 46.615234 54.681641L46.615234 54.683594L46.615234 54.6875C46.615234 54.880205 46.649274 55.132889 46.8125 55.373047C46.97573 55.613205 47.272493 55.796528 47.619141 55.851562L47.621094 55.851562L47.623047 55.851562C49.157043 56.081921 50.708217 56.081286 52.238281 55.871094L52.283203 55.865234L52.326172 55.851562C52.323672 55.852398 52.371972 55.841758 52.439453 55.830078L52.501953 55.818359L52.507812 55.818359C52.966308 55.730709 53.271484 55.336426 53.271484 54.880859L53.271484 54.876953L53.271484 54.871094C53.244954 53.495157 53.66829 52.741028 54.705078 52.212891C55.352026 51.892075 55.910433 51.808218 56.447266 51.917969C56.984684 52.02784 57.526389 52.343718 58.087891 52.927734L58.091797 52.931641L58.09375 52.933594C58.418304 53.258147 58.939033 53.305598 59.3125 53.035156C60.704287 52.043306 61.915663 50.842696 62.916016 49.482422L62.917969 49.480469L62.917969 49.478516C63.190888 49.099461 63.145023 48.567283 62.796875 48.240234L62.800781 48.242188C61.733158 47.21859 61.505947 46.321293 61.96875 45.138672C62.21385 44.515062 62.553041 44.101302 63.005859 43.826172C63.45584 43.552766 64.042222 43.411908 64.806641 43.427734C65.245951 43.449274 65.621692 43.159449 65.746094 42.771484L65.746094 42.767578L65.748047 42.763672C65.942613 42.121414 66.004898 41.101946 66.009766 40.056641C66.014666 39.015158 65.970416 38.043854 65.759766 37.419922C65.628381 37.010324 65.24906 36.751866 64.826172 36.771484C63.329337 36.832454 62.521287 36.349215 62.013672 35.130859C61.759448 34.509966 61.715716 33.980519 61.849609 33.470703C61.983502 32.960888 62.309353 32.4507 62.880859 31.923828L62.880859 31.921875L62.882812 31.919922C63.224395 31.599041 63.296085 31.071639 63.013672 30.681641C62.014055 29.28269 60.80383 28.060952 59.421875 27.068359C59.034415 26.783306 58.467766 26.847093 58.158203 27.220703C57.226208 28.251253 56.329675 28.521637 55.201172 28.142578L55.199219 28.142578C54.498611 27.907547 54.042772 27.565861 53.746094 27.099609C53.449416 26.633357 53.301907 26.011151 53.337891 25.173828C53.358461 24.69459 53.000319 24.264342 52.527344 24.201172C51.674599 24.06712 50.822526 23.999752 49.976562 24 z M 49.988281 25.003906C50.77145 25.003716 51.560544 25.065754 52.353516 25.189453C52.322316 26.138243 52.479173 26.971675 52.902344 27.636719C53.335388 28.31728 54.020247 28.800811 54.880859 29.089844C56.328486 29.576095 57.752932 29.116284 58.865234 27.908203C60.132591 28.823777 61.246382 29.946264 62.171875 31.234375C61.5263 31.840853 61.071998 32.496449 60.882812 33.216797C60.689206 33.953981 60.770115 34.733659 61.087891 35.509766L61.087891 35.511719L61.089844 35.513672C61.720263 37.029758 63.068125 37.812429 64.816406 37.759766C64.913676 38.062012 65.014343 39.069749 65.009766 40.052734C65.005166 41.033748 64.907401 42.048846 64.794922 42.439453C63.910779 42.426533 63.125954 42.584023 62.486328 42.972656C61.833147 43.369526 61.346962 43.990046 61.039062 44.773438C60.460786 46.251131 60.854837 47.717374 62.080078 48.917969C61.151645 50.173485 60.035697 51.282662 58.751953 52.201172C58.105635 51.544136 57.407705 51.092726 56.648438 50.9375C55.868856 50.778121 55.055968 50.92204 54.257812 51.318359L54.255859 51.318359L54.253906 51.320312C52.939969 51.98838 52.268272 53.237964 52.283203 54.841797L52.269531 54.84375C52.237801 54.84925 52.166401 54.866569 52.103516 54.880859C50.665528 55.078401 49.211456 55.078052 47.777344 54.863281C47.638991 54.841311 47.645191 54.820137 47.638672 54.810547C47.632172 54.800947 47.615234 54.756797 47.615234 54.6875C47.634764 53.105193 46.764321 51.73935 45.332031 51.132812L45.238281 51.09375L45.203125 51.09375C43.827078 50.577994 42.285359 50.976338 41.205078 52.099609L41.205078 52.101562L41.203125 52.103516C41.192875 52.114306 41.185848 52.118467 41.179688 52.123047L41.167969 52.132812L41.166016 52.134766C39.905092 51.217743 38.791412 50.113953 37.867188 48.845703C39.109395 47.623324 39.492434 46.120187 38.853516 44.607422L38.851562 44.605469L38.851562 44.603516C38.22363 43.144558 36.914401 42.369619 35.1875 42.386719C34.931356 40.820269 34.930569 39.247131 35.177734 37.708984C36.057676 37.724524 36.839324 37.569807 37.474609 37.181641C38.126628 36.783251 38.611287 36.161934 38.923828 35.380859L38.923828 35.376953L38.925781 35.375C39.50237 33.880712 39.09441 32.410315 37.841797 31.220703C38.760781 29.946737 39.87931 28.819579 41.152344 27.892578C41.753317 28.534921 42.407058 28.99189 43.126953 29.177734C43.86547 29.368386 44.648194 29.27904 45.423828 28.951172C46.191805 28.631832 46.797775 28.140224 47.179688 27.484375C47.551814 26.845333 47.691564 26.064304 47.660156 25.189453C48.42787 25.066514 49.205113 25.004096 49.988281 25.003906 z M 49.998047 31.992188 A 0.50005 0.50005 0 0 0 49.873047 32.009766C48.616711 32.029667 47.435977 32.344659 46.382812 32.880859 A 0.50005 0.50005 0 0 0 46.113281 33.023438C44.755692 33.781192 43.632923 34.909865 42.910156 36.289062 A 0.50058729 0.50058729 0 1 0 43.796875 36.753906C44.345427 35.707149 45.157677 34.82662 46.136719 34.175781L47.011719 38.109375C46.669468 38.681815 46.5 39.342293 46.5 40C46.5 40.861111 46.785317 41.72894 47.376953 42.394531C47.403277 42.424145 47.439235 42.445908 47.466797 42.474609L44.769531 44.642578C43.965911 43.73773 43.387873 42.628464 43.138672 41.396484 A 0.50005 0.50005 0 0 0 42.640625 40.988281 A 0.50005 0.50005 0 0 0 42.158203 41.59375C42.472316 43.146638 43.240492 44.532388 44.3125 45.617188 A 0.50009346 0.50009346 0 0 0 44.400391 45.710938C44.402363 45.712871 44.404276 45.714866 44.40625 45.716797 A 0.50009346 0.50009346 0 0 0 44.410156 45.71875C45.298128 46.586406 46.389042 47.24532 47.601562 47.626953 A 0.50010877 0.50010877 0 0 0 47.746094 47.671875C48.46211 47.882292 49.216667 48 50 48C51.133549 48 52.215169 47.763515 53.193359 47.337891 A 0.50074426 0.50074426 0 1 0 52.792969 46.419922C51.937159 46.792297 50.994451 47 50 47C49.521565 47 49.056682 46.946645 48.605469 46.855469L50.701172 43.429688C51.501548 43.287277 52.160925 42.914419 52.623047 42.394531C53.054763 41.908851 53.31797 41.315174 53.431641 40.695312L56.777344 41.728516C56.425748 43.112731 55.669353 44.333564 54.630859 45.25 A 0.50005 0.50005 0 1 0 55.291016 46C56.5765 44.865603 57.488548 43.319158 57.837891 41.572266 A 0.50007766 0.50007766 0 0 0 57.871094 41.371094C57.948641 40.924275 58 40.468499 58 40C58 38.191282 57.3981 36.518297 56.382812 35.177734 A 0.50005 0.50005 0 0 0 55.947266 34.974609 A 0.50005 0.50005 0 0 0 55.585938 35.78125C56.474651 36.954687 57 38.412718 57 40C57 40.249837 56.984409 40.495354 56.958984 40.738281L53.470703 39.660156C53.405075 38.914183 53.136686 38.183313 52.623047 37.605469C52.042233 36.952053 51.155132 36.521588 50.058594 36.505859L50.445312 33.021484C50.768804 33.041637 51.088774 33.075973 51.398438 33.138672 A 0.50005823 0.50005823 0 1 0 51.595703 32.158203C51.114696 32.060809 50.618161 32.012722 50.111328 32.005859 A 0.50005 0.50005 0 0 0 49.998047 31.992188 z M 53.470703 32.851562 A 0.50005 0.50005 0 0 0 53.248047 33.796875C53.58651 33.974032 53.907389 34.179374 54.210938 34.408203 A 0.50005 0.50005 0 1 0 54.8125 33.609375C54.466049 33.348204 54.098474 33.112999 53.710938 32.910156 A 0.50005 0.50005 0 0 0 53.470703 32.851562 z M 49.4375 33.039062L49.037109 36.630859C48.579611 36.74732 48.172025 36.936073 47.832031 37.193359L47.046875 33.660156C47.782712 33.31682 48.588313 33.106953 49.4375 33.039062 z M 50 37.5C50.875 37.5 51.46859 37.810122 51.876953 38.269531C52.285317 38.72894 52.5 39.361111 52.5 40C52.5 40.638889 52.285317 41.27106 51.876953 41.730469C51.46859 42.189878 50.875 42.5 50 42.5C49.469248 42.5 49.05217 42.375907 48.707031 42.183594 A 0.50005 0.50005 0 0 0 48.376953 41.964844C48.287563 41.890758 48.199002 41.815918 48.123047 41.730469C47.714683 41.27106 47.5 40.638889 47.5 40C47.5 39.529797 47.617603 39.064702 47.841797 38.667969 A 0.50016903 0.50016903 0 0 0 48.041016 38.384766C48.070004 38.347636 48.091778 38.304709 48.123047 38.269531C48.53141 37.810122 49.125 37.5 50 37.5 z M 35.132812 42.369141C35.138112 42.369141 35.137778 42.375653 35.142578 42.376953C35.133578 42.377126 35.128211 42.370894 35.119141 42.371094L35.132812 42.369141 z M 48.300781 43.089844C48.658673 43.275541 49.065831 43.396623 49.515625 43.451172L47.603516 46.580078C46.823122 46.296097 46.110429 45.872973 45.488281 45.347656L48.300781 43.089844 z M 58.794922 52.226562C58.796322 52.227562 58.799581 52.225463 58.800781 52.226562L58.808594 52.234375C58.804494 52.230075 58.799092 52.230863 58.794922 52.226562 z M 52.273438 54.878906C52.273511 54.883306 52.271484 54.886205 52.271484 54.890625L52.271484 54.880859C52.271484 54.880859 52.273438 54.878906 52.273438 54.878906 z M 42 72L43 72L57 72L58 72L58 76L54.5 76 A 0.50005 0.50005 0 1 0 54.5 77L58 77L58 78C58 79.668484 56.668484 81 55 81L45 81C43.331516 81 42 79.668484 42 78L42 77L51.5 77 A 0.50005 0.50005 0 1 0 51.5 76L42 76L42 72 z M 45.310547 83L54.689453 83C54.473251 83.350534 54.148659 83.688637 53.6875 83.996094C52.797087 84.589736 51.476855 85 50 85C48.523145 85 47.202913 84.589736 46.3125 83.996094C45.851341 83.688637 45.526749 83.350534 45.310547 83 z" fill="#7A7A7A" />
</svg>