<svg xmlns="http://www.w3.org/2000/svg" viewBox="0 0 50 50">
  <path d="M21 3L21 13L19 13C17.355469 13 16 14.355469 16 16L16 38C16 39.644531 17.355469 41 19 41L20.96875 41C20.707031 44.320313 17.878906 47 14.5 47C11.121094 47 8.292969 44.320313 8.03125 41L11 41C12.644531 41 14 39.644531 14 38L14 10C14 8.355469 12.644531 7 11 7L3 7C1.355469 7 0 8.355469 0 10L0 38C0 39.644531 1.355469 41 3 41L6.03125 41C6.292969 45.425781 10.011719 49 14.5 49C18.988281 49 22.707031 45.425781 22.96875 41L47 41C48.644531 41 50 39.644531 50 38L50 16C50 14.355469 48.644531 13 47 13L45 13L45 3 Z M 23 5L43 5L43 17L23 17 Z M 3 9L11 9C11.554688 9 12 9.445313 12 10L12 38C12 38.554688 11.554688 39 11 39L3 39C2.445313 39 2 38.554688 2 38L2 10C2 9.445313 2.445313 9 3 9 Z M 19 15L21 15L21 19L45 19L45 15L47 15C47.554688 15 48 15.445313 48 16L48 38C48 38.554688 47.554688 39 47 39L19 39C18.445313 39 18 38.554688 18 38L18 16C18 15.445313 18.445313 15 19 15 Z M 27 21C25.894531 21 25 21.894531 25 23C25 24.105469 25.894531 25 27 25C28.105469 25 29 24.105469 29 23C29 21.894531 28.105469 21 27 21 Z M 33 21C31.894531 21 31 21.894531 31 23C31 24.105469 31.894531 25 33 25C34.105469 25 35 24.105469 35 23C35 21.894531 34.105469 21 33 21 Z M 39 21C37.894531 21 37 21.894531 37 23C37 24.105469 37.894531 25 39 25C40.105469 25 41 24.105469 41 23C41 21.894531 40.105469 21 39 21 Z M 27 27C25.894531 27 25 27.894531 25 29C25 30.105469 25.894531 31 27 31C28.105469 31 29 30.105469 29 29C29 27.894531 28.105469 27 27 27 Z M 33 27C31.894531 27 31 27.894531 31 29C31 30.105469 31.894531 31 33 31C34.105469 31 35 30.105469 35 29C35 27.894531 34.105469 27 33 27 Z M 39 27C37.894531 27 37 27.894531 37 29C37 30.105469 37.894531 31 39 31C40.105469 31 41 30.105469 41 29C41 27.894531 40.105469 27 39 27 Z M 27 33C25.894531 33 25 33.894531 25 35C25 36.105469 25.894531 37 27 37C28.105469 37 29 36.105469 29 35C29 33.894531 28.105469 33 27 33 Z M 33 33C31.894531 33 31 33.894531 31 35C31 36.105469 31.894531 37 33 37C34.105469 37 35 36.105469 35 35C35 33.894531 34.105469 33 33 33 Z M 39 33C37.894531 33 37 33.894531 37 35C37 36.105469 37.894531 37 39 37C40.105469 37 41 36.105469 41 35C41 33.894531 40.105469 33 39 33Z" fill="#144196" />
</svg>