<svg xmlns="http://www.w3.org/2000/svg" viewBox="0 0 50 50">
  <path d="M21.4375 1.0058594C20.081703 1.0463506 18.771739 1.7524791 18.025391 2.9863281L17.761719 3.4238281C17.385173 4.0455037 16.721685 4.4283987 15.996094 4.4433594L15.994141 4.4433594L15.482422 4.4550781C13.286577 4.5008101 11.497809 6.2882845 11.453125 8.484375L11.441406 8.9960938C11.426446 9.7216978 11.042385 10.386559 10.421875 10.761719L9.984375 11.027344C8.1054479 12.164721 7.4493952 14.60833 8.5078125 16.533203L8.5097656 16.533203L8.7558594 16.982422C9.1060077 17.618128 9.1060077 18.385778 8.7558594 19.021484L8.5097656 19.46875C7.4515168 21.393317 8.1061771 23.837315 9.9863281 24.974609L10.423828 25.238281C11.045504 25.614827 11.428399 26.278315 11.443359 27.003906L11.443359 27.005859L11.455078 27.517578C11.49207 29.293819 12.67637 30.78643 14.287109 31.322266L9.0917969 42.580078 A 1.0001 1.0001 0 0 0 10 44L16.519531 44L20.21875 48.625 A 1.0001 1.0001 0 0 0 21.916016 48.400391L25.03125 41.28125L28.146484 48.400391 A 1.0001 1.0001 0 0 0 29.84375 48.625L33.542969 44L40.0625 44 A 1.0001 1.0001 0 0 0 40.970703 42.580078L35.767578 31.304688C37.351214 30.753718 38.510287 29.274384 38.546875 27.517578L38.546875 27.515625L38.558594 27.005859L38.558594 27.003906C38.573554 26.278302 38.957615 25.613441 39.578125 25.238281L40.017578 24.972656C41.896553 23.835278 42.550604 21.393623 41.492188 19.46875L41.490234 19.466797L41.240234 19.015625C40.892213 18.380675 40.892703 17.614886 41.242188 16.980469L41.490234 16.533203L41.490234 16.53125C42.548024 14.607519 41.893895 12.165278 40.015625 11.027344L40.013672 11.025391L39.576172 10.761719C38.954541 10.385361 38.571601 9.7216849 38.556641 8.9960938L38.556641 8.9941406L38.544922 8.484375L38.544922 8.4824219C38.499191 6.2865703 36.711715 4.4978091 34.515625 4.453125L34.003906 4.4414062C33.278302 4.4264453 32.613441 4.0423845 32.238281 3.421875L31.972656 2.984375C30.835362 1.104224 28.391364 0.44956368 26.466797 1.5078125L26.466797 1.5097656L26.017578 1.7558594C25.381872 2.1060077 24.614222 2.1060077 23.978516 1.7558594L23.53125 1.5097656C23.050108 1.2452034 22.537032 1.0874427 22.019531 1.0292969C21.825469 1.0074922 21.631185 1.0000749 21.4375 1.0058594 z M 21.386719 3C21.782233 2.9711393 22.192072 3.0548121 22.568359 3.2617188L23.013672 3.5078125C24.247966 4.1876642 25.750081 4.1876642 26.984375 3.5078125L27.431641 3.2597656L27.431641 3.2617188C28.435074 2.7099676 29.669013 3.0396824 30.261719 4.0195312L30.527344 4.4570312C31.255989 5.6612476 32.553769 6.411729 33.960938 6.4414062L34.474609 6.453125C35.619859 6.476427 36.523573 7.3781883 36.546875 8.5234375L36.546875 8.5253906L36.556641 9.0371094C36.585681 10.445518 37.336691 11.743202 38.541016 12.472656L38.978516 12.738281C39.957765 13.330624 40.288615 14.563305 39.738281 15.566406L39.490234 16.015625C38.810383 17.249919 38.810383 18.750081 39.490234 19.984375L39.492188 19.986328L39.492188 19.988281L39.740234 20.431641C40.291817 21.434767 39.959494 22.669097 38.980469 23.261719L38.542969 23.527344C37.337478 24.256184 36.587633 25.554495 36.558594 26.962891L36.548828 27.474609L36.548828 27.476562C36.525528 28.621813 35.621812 29.523573 34.476562 29.546875L33.962891 29.558594C32.55523 29.588284 31.258416 30.337244 30.529297 31.541016L30.529297 31.542969L30.263672 31.980469C29.670966 32.960318 28.437027 33.290032 27.433594 32.738281L27.433594 32.740234L26.986328 32.492188C25.752034 31.812335 24.249919 31.812335 23.015625 32.492188L22.568359 32.740234L22.568359 32.738281C21.565233 33.289864 20.330903 32.959494 19.738281 31.980469L19.472656 31.542969C18.744011 30.338752 17.446232 29.588271 16.039062 29.558594L16.037109 29.558594L15.525391 29.546875C14.380141 29.523575 13.476427 28.621813 13.453125 27.476562L13.453125 27.474609L13.443359 26.962891C13.414319 25.554482 12.663309 24.256798 11.458984 23.527344L11.021484 23.261719C10.04167 22.668878 9.7099674 21.435074 10.261719 20.431641L10.507812 19.986328L10.507812 19.984375C11.186723 18.750406 11.187351 17.249349 10.507812 16.015625L10.259766 15.568359L10.261719 15.568359C9.7101357 14.565233 10.040506 13.330903 11.019531 12.738281L11.457031 12.472656C12.661248 11.744011 13.411729 10.446231 13.441406 9.0390625L13.441406 9.0371094L13.453125 8.5253906C13.476425 7.3801414 14.378187 6.4764275 15.523438 6.453125L15.525391 6.453125L16.037109 6.4433594C17.445518 6.4143204 18.743202 5.6633088 19.472656 4.4589844L19.738281 4.0214844C20.034634 3.5315599 20.489931 3.2024706 20.998047 3.0664062C21.125076 3.0323902 21.254881 3.0096202 21.386719 3 z M 32.283203 11.085938L24.042969 23.966797L17.419922 18.005859L16.080078 19.494141L24.457031 27.03125L33.966797 12.164062L32.283203 11.085938 z M 33.701172 31.603516L38.498047 42L33.0625 42 A 1.0001 1.0001 0 0 0 32.28125 42.375L29.314453 46.082031L26.123047 38.783203L27.806641 34.935547C29.413838 35.18657 31.089508 34.478857 31.974609 33.015625L32.240234 32.578125C32.562592 32.045913 33.099287 31.704691 33.701172 31.603516 z M 16.357422 31.611328C16.936501 31.724996 17.45057 32.063489 17.761719 32.578125L18.027344 33.015625C19.164722 34.8946 21.60833 35.550604 23.533203 34.492188L23.533203 34.490234L23.982422 34.244141C24.592626 33.908038 25.321448 33.903754 25.941406 34.212891L20.748047 46.082031L17.78125 42.375 A 1.0001 1.0001 0 0 0 17 42L11.564453 42L16.357422 31.611328 z" fill="#B6B6B6" />
</svg>