<?xml version="1.0" encoding="utf-8"?>
<svg xmlns="http://www.w3.org/2000/svg" viewBox="0 0 50 50" width="100" height="100">
  <path d="M4 9C1.800781 9 0 10.800781 0 13L0 34C0 36.199219 1.800781 38 4 38L7.09375 38C7.5625 40.273438 9.59375 42 12 42C14.40625 42 16.4375 40.273438 16.90625 38L36.09375 38C36.5625 40.273438 38.59375 42 41 42C43.40625 42 45.4375 40.273438 45.90625 38L47 38C48.644531 38 50 36.644531 50 35L50 28.40625C50 27.28125 49.605469 26.164063 48.90625 25.28125L46.125 21.78125L46.09375 21.6875L41 11.71875C40.148438 10.042969 38.441406 9 36.5625 9 Z M 4 11L30.21875 11L32.6875 20.84375C33 22.089844 34.0625 23.023438 35.34375 23.125L45.28125 23.90625L47.34375 26.53125C47.761719 27.058594 48 27.730469 48 28.40625L48 35C48 35.566406 47.566406 36 47 36L45.90625 36C45.4375 33.726563 43.40625 32 41 32C38.59375 32 36.5625 33.726563 36.09375 36L16.90625 36C16.4375 33.726563 14.40625 32 12 32C9.59375 32 7.5625 33.726563 7.09375 36L4 36C2.882813 36 2 35.117188 2 34L2 13C2 11.882813 2.882813 11 4 11 Z M 32.28125 11L36.5625 11C37.691406 11 38.707031 11.617188 39.21875 12.625L43.875 21.78125L35.5 21.125C35.066406 21.089844 34.730469 20.796875 34.625 20.375 Z M 12 34C13.582031 34 14.839844 35.207031 14.96875 36.75C14.96875 36.761719 14.96875 36.769531 14.96875 36.78125C14.941406 36.914063 14.941406 37.054688 14.96875 37.1875C14.96875 37.199219 14.96875 37.207031 14.96875 37.21875C14.851563 38.777344 13.589844 40 12 40C10.363281 40 9.050781 38.714844 9 37.09375C9.007813 37.019531 9.007813 36.949219 9 36.875C9.066406 35.265625 10.375 34 12 34 Z M 41 34C42.667969 34 44 35.332031 44 37C43.996094 37.042969 43.996094 37.082031 44 37.125C43.933594 38.734375 42.625 40 41 40C39.363281 40 38.050781 38.714844 38 37.09375C38.007813 37.019531 38.007813 36.949219 38 36.875C38.066406 35.265625 39.375 34 41 34Z" fill="#C2C2C2" />
</svg>