<svg xmlns="http://www.w3.org/2000/svg" viewBox="0 0 32 32">
  <path d="M16 3C15.375 3 14.753906 3.210938 14.21875 3.59375L12.5625 4.75L10.65625 5L10.625 5L10.59375 5.03125C9.320313 5.316406 8.316406 6.320313 8.03125 7.59375L8 7.625L8 7.65625L7.75 9.59375L6.59375 11.09375L6.5625 11.125L6.5625 11.15625C5.863281 12.273438 5.832031 13.714844 6.59375 14.78125L7.78125 16.4375L8.09375 18.15625L4.875 23.0625L3.84375 24.59375L8.625 24.59375L9.78125 27.28125L10.5 29L11.53125 27.4375L14.6875 22.6875C15.535156 23.035156 16.492188 23.066406 17.3125 22.6875L20.46875 27.4375L21.5 29L22.21875 27.28125L23.375 24.59375L28.15625 24.59375L27.125 23.0625L24 18.3125L24.25 16.4375L25.40625 14.78125L25.4375 14.75L25.4375 14.71875C26.136719 13.601563 26.167969 12.191406 25.40625 11.125L24.25 9.46875L23.875 7.59375L23.90625 7.59375C23.902344 7.570313 23.878906 7.554688 23.875 7.53125C23.695313 6.222656 22.660156 5.160156 21.34375 5L21.3125 5L19.4375 4.75L17.78125 3.59375C17.246094 3.210938 16.625 3 16 3 Z M 16 5.03125C16.230469 5.03125 16.457031 5.101563 16.625 5.21875L18.40625 6.5L18.625 6.65625L18.875 6.6875L21.0625 7L21.09375 7C21.542969 7.050781 21.855469 7.363281 21.90625 7.8125L21.90625 7.875L22.3125 10.09375L22.34375 10.3125L22.5 10.5L23.78125 12.28125C24.019531 12.613281 24.050781 13.175781 23.75 13.65625L22.34375 15.625L22.3125 15.875L22 18.0625L22 18.09375C21.980469 18.257813 21.925781 18.410156 21.84375 18.53125L21.78125 18.5625L21.78125 18.59375C21.636719 18.765625 21.4375 18.878906 21.1875 18.90625L21.125 18.90625L18.84375 19.3125L18.59375 19.34375L18.40625 19.5L16.625 20.78125C16.292969 21.019531 15.699219 21.050781 15.21875 20.75L13.59375 19.5L13.40625 19.34375L13.125 19.3125L10.9375 19L10.90625 19C10.597656 18.964844 10.359375 18.804688 10.21875 18.5625C10.15625 18.453125 10.109375 18.324219 10.09375 18.1875L10.09375 18.125L9.6875 15.84375L9.65625 15.59375L9.5 15.40625L8.21875 13.625C7.980469 13.292969 7.949219 12.699219 8.25 12.21875L9.5 10.59375L9.65625 10.40625L9.6875 10.125L9.96875 8.03125C9.972656 8.015625 9.996094 8.015625 10 8C10.125 7.511719 10.511719 7.125 11 7C11.015625 6.996094 11.015625 6.972656 11.03125 6.96875L13.125 6.6875L13.375 6.65625L13.59375 6.5L15.375 5.21875C15.542969 5.101563 15.769531 5.03125 16 5.03125 Z M 22.90625 20.25L24.4375 22.59375L22.03125 22.59375L21.78125 23.21875L21.09375 24.8125L18.96875 21.5625L19.4375 21.21875L21.40625 20.875L21.40625 20.90625C21.429688 20.902344 21.445313 20.878906 21.46875 20.875C22.007813 20.800781 22.496094 20.574219 22.90625 20.25 Z M 9.09375 20.28125C9.519531 20.664063 10.0625 20.929688 10.65625 21C10.667969 21 10.675781 21 10.6875 21L12.59375 21.25L13.03125 21.59375L10.90625 24.8125L10.21875 23.21875L9.96875 22.59375L7.5625 22.59375Z" fill="#7A7A7A" />
</svg>