<?xml version="1.0" encoding="UTF-8"?>
<svg id="Layer_1" data-name="Layer 1" xmlns="http://www.w3.org/2000/svg" viewBox="0 0 210 298">
  <defs>
    <style>
      .cls-1, .cls-2, .cls-3 {
        stroke-width: 4px;
      }

      .cls-1, .cls-2, .cls-3, .cls-4, .cls-5 {
        fill: none;
        stroke: #7b7b7b;
      }

      .cls-2, .cls-3 {
        stroke-linecap: round;
      }

      .cls-3 {
        stroke-linejoin: round;
      }

      .cls-4 {
        stroke-width: 10px;
      }

      .cls-5 {
        stroke-width: 7px;
      }
    </style>
  </defs>
  <path class="cls-5" d="m166.15,99.29c-.23-.74-.97-1.24-1.75-1.2-6.56.27-10.9-2.29-13.19-7.8-2.29-5.59-1.01-10.48,3.96-15.06.66-.62.78-1.63.27-2.33-3.88-5.43-8.58-10.17-13.93-14.01-.73-.54-1.75-.43-2.33.27-4.11,4.58-8.81,6.05-14.01,4.31-6.25-2.1-9.12-6.6-8.81-13.86.04-.93-.62-1.71-1.51-1.82-6.64-1.05-13.24-1.05-19.68,0-.89.16-1.51.93-1.48,1.82.31,6.68-2.25,11.06-7.76,13.35-5.59,2.37-10.52,1.09-15.06-3.88-.62-.66-1.63-.77-2.33-.23-5.35,3.88-10.05,8.62-13.89,13.97-.5.7-.43,1.71.23,2.33,4.77,4.42,6.06,9.2,3.96,14.63-2.25,5.62-6.6,8.3-13.31,8.11-.89-.04-1.67.62-1.78,1.51-1.05,6.45-1.05,13.04.04,19.6.16.85.89,1.48,1.75,1.48,6.52-.16,10.75,2.41,13.04,7.72,2.33,5.51,1.12,10.4-3.6,14.95-.62.58-.74,1.59-.23,2.29,3.88,5.36,8.58,10.01,13.9,13.86.07.07.2.11.31.16.62.27,1.43.11,1.98-.35.16-.12.27-.24.35-.31,3.92-4.08,9.31-5.4,14.12-3.46.04,0,.12.04.16.04,5.05,2.14,8,6.75,7.92,12.38,0,1.05.39,2.37,2.33,2.68,5.94.89,11.95.89,17.89.07.23-.07.5-.12.74-.16l.23-.04c.82-.16,1.44-.93,1.44-1.79-.12-6.01,2.09-10.05,6.83-12.46,5.78-2.87,10.98-1.82,15.87,3.26.62.62,1.59.7,2.29.2,5.4-3.84,10.09-8.5,13.97-13.78.5-.7.43-1.71-.23-2.33-4.66-4.46-5.9-9.23-3.8-14.59,2.21-5.63,6.6-8.27,13.31-8.11.82.04,1.51-.5,1.75-1.24,1.24-4.08,1.32-16.54.07-20.18h0Z"/>
  <path class="cls-3" d="m78.42,95.09c5.02-9.57,15.04-16.09,26.59-16.09,2.05,0,4.05.2,5.99.6m5.99,56.92c-3.67,1.6-7.71,2.48-11.97,2.48-14.52,0-26.63-10.32-29.4-24.02m53.34-24.07c3.8,5.03,6.06,11.29,6.06,18.09,0,8.96-3.93,17-10.16,22.5m-5.93-49.09c1.45.76,2.83,1.64,4.13,2.62"/>
  <g>
    <path class="cls-2" d="m90.89,82.52l4.34,19.51m9.77-23.03l-2.02,18.17m-4.85,21.68l-14.26,11.46m22.7-9.41l-10.28,16.82m20.83-28.52l17.36,5.37"/>
    <path class="cls-4" d="m205,105c0-57.35-48.28-103.43-106.41-99.8C49.8,8.24,9.69,47.24,5.4,95.94c-3.2,36.28,13.01,68.99,39.4,88.91,7.82,5.91,12.2,15.32,12.2,25.13v3.03c0,11.04,8.96,20,20,20h56c11.04,0,20-8.96,20-20v-3.02c0-10.18,5-19.57,13.06-25.79,23.68-18.29,38.94-46.95,38.94-79.19h0Zm-80,172h-40c-8.84,0-16-7.16-16-16v-28h72v28c0,8.84-7.16,16-16,16h0Zm4,0c0,8.84-10.74,16-24,16s-24-7.16-24-16"/>
  </g>
  <path class="cls-2" d="m71,255h40m12,0h16"/>
  <path class="cls-1" d="m117,109c0,6.63-5.37,12-12,12s-12-5.37-12-12,5.37-12,12-12,12,5.37,12,12h0Z"/>
</svg>