<svg xmlns="http://www.w3.org/2000/svg" viewBox="0 0 50 50">
  <path d="M24.90625 0.96875C24.863281 0.976563 24.820313 0.988281 24.78125 1C24.316406 1.105469 23.988281 1.523438 24 2L24 6C23.996094 6.359375 24.183594 6.695313 24.496094 6.878906C24.808594 7.058594 25.191406 7.058594 25.503906 6.878906C25.816406 6.695313 26.003906 6.359375 26 6L26 2C26.011719 1.710938 25.894531 1.433594 25.6875 1.238281C25.476563 1.039063 25.191406 0.941406 24.90625 0.96875 Z M 10.03125 7.125C10 7.132813 9.96875 7.144531 9.9375 7.15625C9.578125 7.230469 9.289063 7.5 9.183594 7.851563C9.078125 8.203125 9.175781 8.585938 9.4375 8.84375L12.28125 11.6875C12.523438 11.984375 12.910156 12.121094 13.285156 12.035156C13.65625 11.949219 13.949219 11.65625 14.035156 11.285156C14.121094 10.910156 13.984375 10.523438 13.6875 10.28125L10.84375 7.4375C10.65625 7.238281 10.398438 7.128906 10.125 7.125C10.09375 7.125 10.0625 7.125 10.03125 7.125 Z M 39.75 7.125C39.707031 7.132813 39.664063 7.144531 39.625 7.15625C39.445313 7.203125 39.285156 7.300781 39.15625 7.4375L36.3125 10.28125C36.015625 10.523438 35.878906 10.910156 35.964844 11.285156C36.050781 11.65625 36.34375 11.949219 36.714844 12.035156C37.089844 12.121094 37.476563 11.984375 37.71875 11.6875L40.5625 8.84375C40.875 8.546875 40.964844 8.082031 40.78125 7.691406C40.59375 7.296875 40.179688 7.070313 39.75 7.125 Z M 25 9C17.28125 9 11 15.28125 11 23C11 27.890625 13.191406 31.175781 15.25 33.59375C16.28125 34.800781 17.277344 35.824219 17.96875 36.71875C18.660156 37.613281 19 38.328125 19 39L19 42.53125C18.867188 42.808594 18.867188 43.128906 19 43.40625L19 44C19 45.644531 20.355469 47 22 47L22.78125 47C23.332031 47.609375 24.117188 48 25 48C25.882813 48 26.667969 47.609375 27.21875 47L28 47C29.644531 47 31 45.644531 31 44L31 43.1875C31.027344 43.054688 31.027344 42.914063 31 42.78125L31 39C31 38.328125 31.339844 37.605469 32.03125 36.71875C32.722656 35.832031 33.71875 34.828125 34.75 33.625C36.808594 31.21875 39 27.933594 39 23C39 15.28125 32.71875 9 25 9 Z M 25 11C31.640625 11 37 16.359375 37 23C37 27.359375 35.191406 30.078125 33.25 32.34375C32.28125 33.476563 31.277344 34.464844 30.46875 35.5C29.875 36.261719 29.449219 37.09375 29.21875 38L20.78125 38C20.550781 37.09375 20.125 36.265625 19.53125 35.5C18.722656 34.457031 17.71875 33.453125 16.75 32.3125C14.808594 30.035156 13 27.3125 13 23C13 16.359375 18.359375 11 25 11 Z M 3.71875 22C3.167969 22.078125 2.78125 22.589844 2.859375 23.140625C2.9375 23.691406 3.449219 24.078125 4 24L8 24C8.359375 24.003906 8.695313 23.816406 8.878906 23.503906C9.058594 23.191406 9.058594 22.808594 8.878906 22.496094C8.695313 22.183594 8.359375 21.996094 8 22L4 22C3.96875 22 3.9375 22 3.90625 22C3.875 22 3.84375 22 3.8125 22C3.78125 22 3.75 22 3.71875 22 Z M 41.71875 22C41.167969 22.078125 40.78125 22.589844 40.859375 23.140625C40.9375 23.691406 41.449219 24.078125 42 24L46 24C46.359375 24.003906 46.695313 23.816406 46.878906 23.503906C47.058594 23.191406 47.058594 22.808594 46.878906 22.496094C46.695313 22.183594 46.359375 21.996094 46 22L42 22C41.96875 22 41.9375 22 41.90625 22C41.875 22 41.84375 22 41.8125 22C41.78125 22 41.75 22 41.71875 22 Z M 12.875 34C12.648438 34.03125 12.4375 34.144531 12.28125 34.3125L9.4375 37.15625C9.140625 37.398438 9.003906 37.785156 9.089844 38.160156C9.175781 38.53125 9.46875 38.824219 9.839844 38.910156C10.214844 38.996094 10.601563 38.859375 10.84375 38.5625L13.6875 35.71875C13.984375 35.433594 14.074219 34.992188 13.914063 34.613281C13.757813 34.234375 13.378906 33.992188 12.96875 34C12.9375 34 12.90625 34 12.875 34 Z M 36.8125 34C36.4375 34.066406 36.136719 34.339844 36.03125 34.703125C35.925781 35.070313 36.035156 35.460938 36.3125 35.71875L39.15625 38.5625C39.398438 38.859375 39.785156 38.996094 40.160156 38.910156C40.53125 38.824219 40.824219 38.53125 40.910156 38.160156C40.996094 37.785156 40.859375 37.398438 40.5625 37.15625L37.71875 34.3125C37.53125 34.113281 37.273438 34.003906 37 34C36.96875 34 36.9375 34 36.90625 34C36.875 34 36.84375 34 36.8125 34 Z M 21 40L29 40L29 42L24 42C23.96875 42 23.9375 42 23.90625 42C23.875 42 23.84375 42 23.8125 42C23.261719 42.050781 22.855469 42.542969 22.90625 43.09375C22.957031 43.644531 23.449219 44.050781 24 44L29 44C29 44.566406 28.566406 45 28 45L22 45C21.433594 45 21 44.566406 21 44C21.359375 44.003906 21.695313 43.816406 21.878906 43.503906C22.058594 43.191406 22.058594 42.808594 21.878906 42.496094C21.695313 42.183594 21.359375 41.996094 21 42Z" fill="#B7B7B7" />
</svg>