<?xml version="1.0" encoding="utf-8"?>
<svg xmlns="http://www.w3.org/2000/svg" viewBox="0 0 50 50" width="100" height="100">
  <path d="M9 4C6.2545455 4 4 6.2545455 4 9L4 41C4 43.745455 6.2545455 46 9 46L41 46C43.745455 46 46 43.745455 46 41L46 9C46 6.2545455 43.745455 4 41 4L9 4 z M 9 6L41 6C42.654545 6 44 7.3454545 44 9L44 41C44 42.654545 42.654545 44 41 44L9 44C7.3454545 44 6 42.654545 6 41L6 9C6 7.3454545 7.3454545 6 9 6 z M 17 14L17 36L21 36L21 28L29 28C32.309 28 35 25.309 35 22L35 20C35 16.691 32.309 14 29 14L21 14L19 14L17 14 z M 21 18L29 18C30.103 18 31 18.897 31 20L31 22C31 23.103 30.103 24 29 24L21 24L21 18 z" fill="#C2C2C2" />
</svg>