<svg xmlns="http://www.w3.org/2000/svg" viewBox="0 0 50 50">
  <path d="M5.8125 0C5.335938 0.0898438 4.992188 0.511719 5 1L5 44C5 44.550781 5.449219 45 6 45L25.84375 45C27.945313 46.257813 30.378906 47 33 47C36.503906 47 39.699219 45.695313 42.15625 43.5625L48.59375 50L50 48.59375L43.5625 42.15625C45.695313 39.699219 47 36.503906 47 33C47 28.253906 44.621094 24.066406 41 21.53125L41 1C41 0.449219 40.550781 0 40 0L6 0C5.96875 0 5.9375 0 5.90625 0C5.875 0 5.84375 0 5.8125 0 Z M 7 2L39 2L39 20.375C37.175781 19.503906 35.152344 19 33 19C29.734375 19 26.726563 20.121094 24.34375 22L14 22L14 24L22.28125 24C21.289063 25.179688 20.5 26.535156 19.9375 28L14 28L14 30L19.34375 30C19.128906 30.96875 19 31.964844 19 33C19 33.339844 19.007813 33.667969 19.03125 34L14 34L14 36L19.3125 36C19.902344 38.703125 21.28125 41.128906 23.1875 43L7 43 Z M 14 10L14 12L33 12L33 10 Z M 14 16L14 18L33 18L33 16 Z M 33 21C35.371094 21 37.578125 21.664063 39.4375 22.84375C39.46875 22.867188 39.5 22.886719 39.53125 22.90625C42.828125 25.042969 45 28.769531 45 33C45 39.640625 39.640625 45 33 45C30.589844 45 28.347656 44.3125 26.46875 43.09375C23.171875 40.957031 21 37.230469 21 33C21 26.359375 26.359375 21 33 21 Z M 25 27C24.300781 27.898438 23.800781 28.898438 23.5 30L38 30L38 27 Z M 23.1875 35C23.386719 36.101563 23.8125 37.101563 24.3125 38L38 38L38 35Z" fill="#5B5B5B" />
</svg>