<svg xmlns="http://www.w3.org/2000/svg" viewBox="0 0 50 50">
  <path d="M19 2C9.1341299 2 1 9.103494 1 18C1 22.318835 2.9851112 26.192374 6.0839844 29.052734C5.1545537 32.009948 1.5507814 34.179688 1.5507812 34.179688 A 1.0001 1.0001 0 0 0 1.2773438 35.714844C1.2773438 35.714844 1.6827452 36.138853 2.3359375 36.4375C2.9891298 36.736147 3.9636216 37 5.328125 37C11.79593 37 14.701269 34.412902 15.455078 33.634766C16.602463 33.842137 17.774949 34 19 34C28.86587 34 37 26.896506 37 18C37 9.103494 28.86587 2 19 2 z M 19 4C27.91213 4 35 10.328506 35 18C35 25.671494 27.91213 32 19 32C17.756399 32 16.547719 31.863164 15.375 31.625 A 1.0001 1.0001 0 0 0 14.488281 31.876953L14.345703 32.013672 A 1.0001 1.0001 0 0 0 14.285156 32.074219C14.063426 32.322975 11.60738 35 5.328125 35C4.7122125 35 4.5001893 34.875574 4.1289062 34.789062C5.5888067 33.762389 7.5207048 32.101831 8.1972656 29.15625 A 1.0001 1.0001 0 0 0 8.203125 29.123047L8.2246094 29.009766 A 1.0001 1.0001 0 0 0 7.890625 28.054688C4.8599825 25.490009 3 21.939897 3 18C3 10.328506 10.08787 4 19 4 z M 11 14 A 1.0001 1.0001 0 1 0 11 16L27 16 A 1.0001 1.0001 0 1 0 27 14L11 14 z M 38.617188 14.523438C38.783187 15.284437 38.879547 16.066375 38.935547 16.859375C43.745547 19.276375 47 23.808 47 29C47 32.816 45.263375 36.387688 42.109375 39.054688C41.832375 39.288688 41.705391 39.655719 41.775391 40.011719L41.804688 40.15625C42.410688 42.79525 44.460734 44.772578 45.927734 45.892578C45.586734 45.956578 45.172875 46 44.671875 46C38.492875 46 35.982297 43.374719 35.654297 43.011719L35.511719 42.876953C35.324719 42.699953 35.077219 42.605469 34.824219 42.605469C34.758219 42.605469 34.692953 42.612 34.626953 42.625C33.399953 42.874 32.179 43 31 43C25.047 43 19.852656 40.134344 17.097656 35.902344C16.765656 35.872344 16.435562 35.846781 16.101562 35.800781C15.823562 36.015781 15.479516 36.248375 15.103516 36.484375C18.130516 41.544375 24.117 45 31 45C32.141 45 33.313187 44.894547 34.492188 44.685547C35.472187 45.633547 38.534875 48 44.671875 48C47.459875 48 48.535656 46.931797 48.722656 46.716797C48.922656 46.488797 49.006125 46.181813 48.953125 45.882812C48.901125 45.584812 48.717172 45.326641 48.451172 45.181641C48.413172 45.160641 44.844953 43.169063 43.876953 40.164062C47.185953 37.157063 49 33.217 49 29C49 22.6 44.740187 17.080438 38.617188 14.523438 z M 11 20 A 1.0001 1.0001 0 1 0 11 22L20 22 A 1.0001 1.0001 0 1 0 20 20L11 20 z M 24 20 A 1.0001 1.0001 0 1 0 24 22L27 22 A 1.0001 1.0001 0 1 0 27 20L24 20 z" fill="#FFFFFF" />
</svg>